<svg xmlns="http://www.w3.org/2000/svg" fill="#434d4d" width="32" height="32" viewBox="0 0 189.4 210.72"><defs/><path d="M40.36 179.28V63.36l13.92 7v109l-13.92-.08zm47.52 25.2v-115l13.92.24v114.76H87.88zM0 158.4V53l14-6.68v109L0 158.4zm92.19-56.24L1.72 58.8 18 51.36 98.23 89.6l-6 12.56h-.04zm90.22-37.24l-93.13-52.2L94.84 0l94.38 52.76-6.77 12.16h-.04zm-87.09 145.8L0 158.64l6.76-12.17 94.62 51.73-6.06 12.52zM10.84 62.88L0 53 94.84.24l6.62 12.47-90.62 50.17zm164.64 95V57.6l13.92-4.8v105.12l-13.92-.04zm-79.74.81l-6.4-12.36 89.82-46.48 6.4 12.37-89.82 46.51v-.04zm-3-54.52l-6-12.56 92-44.21 6 12.56-92 44.21zm2.59 106.51l-6.09-12.53 91.07-51.27 9.1 10.76-94.08 53v.04z"/></svg>